<?xml version="1.0" standalone="no"?>
<!DOCTYPE svg PUBLIC "-//W3C//DTD SVG 1.1//EN" "http://www.w3.org/Graphics/SVG/1.1/DTD/svg11.dtd" >
<svg xmlns="http://www.w3.org/2000/svg">
<metadata></metadata>
<defs>
<font id="sansus_webissimoregular" horiz-adv-x="1044" >
<font-face units-per-em="2048" ascent="1536" descent="-512" />
<missing-glyph horiz-adv-x="430" />
<glyph horiz-adv-x="0" />
<glyph unicode="&#xd;" horiz-adv-x="430" />
<glyph unicode=" "  horiz-adv-x="430" />
<glyph unicode="&#x09;" horiz-adv-x="430" />
<glyph unicode="&#xa0;" horiz-adv-x="430" />
<glyph unicode="!" horiz-adv-x="577" d="M135 152q0 78 44 125t110 47t109.5 -47t43.5 -125t-44 -125t-109 -47q-66 0 -110 47t-44 125zM135 1450h309l-34 -907h-240z" />
<glyph unicode="&#x22;" horiz-adv-x="749" d="M78 1446h227l-29 -496h-170zM426 1446h227l-28 -496h-172z" />
<glyph unicode="#" horiz-adv-x="1011" d="M23 379l24 194h148l43 228h-166l24 192h178l56 299l202 -18l-53 -281h166l53 289l203 -20q-14 -68 -25.5 -134.5t-25.5 -134.5h139q-6 -49 -12 -97t-10 -95h-154l-43 -228h170l-25 -194h-180l-61 -326q-51 6 -100.5 11.5t-100.5 9.5l55 305h-166l-59 -313q-51 4 -100 9 t-101 11l56 293h-135zM399 573h166l43 228h-168q-10 -57 -20 -113.5t-21 -114.5z" />
<glyph unicode="$" horiz-adv-x="888" d="M53 139l49 201q20 -6 52 -16.5t69 -20.5t76 -17t76 -7q70 0 104.5 31.5t34.5 82.5q0 43 -32.5 78t-81 69.5t-104.5 70.5t-104.5 82t-81 103.5t-32.5 135.5q0 127 70.5 210t197.5 111l-4 209h209q-2 -49 -3 -98t-1 -98q80 -6 138 -19.5t91 -21.5l-22 -213 q-29 10 -94.5 25.5t-137.5 15.5q-66 0 -108.5 -28t-42.5 -77q0 -43 33.5 -77.5t83 -68.5t108.5 -70t108.5 -81t83 -102t33.5 -135q0 -129 -66.5 -218.5t-207.5 -117.5l4 -201h-209l4 186q-57 4 -104 14.5t-84 23t-63.5 22.5t-41.5 16z" />
<glyph unicode="%" horiz-adv-x="1359" d="M68 1042q0 346 266 347q266 -1 266 -347q0 -180 -65.5 -265t-200.5 -85q-137 0 -201.5 85t-64.5 265zM240 1042q0 -100 21.5 -153t72.5 -53q53 0 74.5 53t21.5 153q0 98 -22.5 150.5t-73.5 52.5t-72.5 -52t-21.5 -151zM242 -10l661 1372h223l-659 -1372h-225zM768 309 q0 346 266 346q269 0 269 -346q0 -180 -67 -265t-202 -85q-137 0 -201.5 85t-64.5 265zM940 309q0 -100 21.5 -152.5t72.5 -52.5q53 0 74.5 52.5t21.5 152.5q0 98 -22.5 150.5t-73.5 52.5t-72.5 -52t-21.5 -151z" />
<glyph unicode="&#x26;" horiz-adv-x="1308" d="M47 393q0 139 69.5 233.5t182.5 149.5q-59 61 -99 132t-40 167q0 156 100 236t275 80q166 0 267 -74t101 -221q0 -135 -70.5 -225.5t-185.5 -153.5l219 -248q12 18 24.5 44t21 54.5t14.5 57t6 51.5h270q-4 -59 -19.5 -117.5t-38 -111t-48 -95.5t-52.5 -73l252 -279h-366 l-86 98q-68 -57 -151 -89t-210 -32q-90 0 -170 25t-139 75t-93 129t-34 187zM352 414q0 -94 46 -155.5t124 -61.5q45 0 88 19.5t66 57.5l-217 330q-53 -27 -80 -78t-27 -112zM451 1071q0 -39 5 -73.5t40 -75.5l28 -33q35 25 70 71t35 105q0 39 -20.5 77t-76.5 38 q-33 0 -57 -22.5t-24 -86.5z" />
<glyph unicode="'" horiz-adv-x="403" d="M78 1446h227l-29 -496h-170z" />
<glyph unicode="(" horiz-adv-x="667" d="M104 573q0 186 30 338t78 270.5t110.5 206t128.5 146.5l176 -125q-35 -39 -77 -113.5t-78 -182t-60.5 -244t-24.5 -296.5t24.5 -295t60.5 -241.5t78 -181t77 -113.5l-178 -127q-66 59 -127.5 146t-109.5 205t-78 269.5t-30 337.5z" />
<glyph unicode=")" horiz-adv-x="667" d="M39 -258q35 39 77 113.5t78.5 182t61.5 244t25 296.5t-25 295t-61.5 241.5t-78.5 181t-77 113.5l178 125q63 -59 126 -146.5t112 -205t78.5 -268t29.5 -336.5t-29.5 -338t-78.5 -271t-111.5 -207t-126.5 -145z" />
<glyph unicode="*" horiz-adv-x="837" d="M39 1026l65 199l234 -107l-27 268h215l-30 -268l239 107q16 -49 31.5 -99.5t32.5 -99.5l-252 -51l184 -201l-174 -125l-137 234l-139 -234q-43 31 -86 61.5t-86 63.5l182 199q-63 12 -126 25.5t-126 27.5z" />
<glyph unicode="+" horiz-adv-x="962" d="M80 514v217h287v318h229v-318h287v-217h-287v-319h-229v319h-287z" />
<glyph unicode="," horiz-adv-x="477" d="M49 -246q29 53 56.5 116.5t27.5 111.5q0 39 -11 76.5t-11 86.5v11q0 68 37.5 109.5t82.5 41.5q145 0 146 -180q-4 -53 -23.5 -109.5t-48.5 -113t-63.5 -110.5t-67.5 -103z" />
<glyph unicode="-" horiz-adv-x="653" d="M74 463v221h506v-221h-506z" />
<glyph unicode="." horiz-adv-x="509" d="M100 152q0 78 44 125t110 47t110 -47t44 -125t-44.5 -125t-109.5 -47q-66 0 -110 47t-44 125z" />
<glyph unicode="/" horiz-adv-x="800" d="M2 -276q84 281 170 555t162 508.5t135 413.5t94 269h246q-33 -90 -93.5 -269t-135 -413.5t-160.5 -509t-170 -554.5h-248z" />
<glyph unicode="0" horiz-adv-x="1048" d="M63 672q0 186 30 319t88.5 217t144.5 124t196 40q111 0 197 -40t144.5 -124t89 -217t30.5 -319t-30.5 -318.5t-89 -217.5t-144.5 -124t-197 -39t-196.5 39t-144 124t-88.5 217t-30 319zM346 672q0 -236 37 -362t139 -126t141 125t39 363q0 236 -38.5 362.5t-141.5 126.5 q-100 0 -138 -127t-38 -362z" />
<glyph unicode="1" horiz-adv-x="737" d="M-10 1059q53 43 109.5 87t106.5 82t93 69.5t70 50.5h252v-1348h-283v1063q-57 -47 -115.5 -93t-109.5 -85z" />
<glyph unicode="2" horiz-adv-x="878" d="M33 0v199q25 27 69.5 73.5t98 108t109 132.5t100.5 144.5t73.5 148.5t28.5 142q0 201 -178 201q-39 0 -77 -6t-70.5 -15.5t-57.5 -18.5t-37 -15q-12 47 -23.5 97t-21.5 97q16 8 50 22.5t79 28t101.5 23.5t119.5 10q201 0 303.5 -93t102.5 -271q0 -117 -42 -226.5 t-107.5 -209t-145.5 -187.5t-156 -162q106 4 220 8.5t247 4.5v-236h-786z" />
<glyph unicode="3" horiz-adv-x="954" d="M16 80l76 196q10 -4 36 -16t62.5 -24.5t82.5 -22.5t96 -10q102 0 162.5 46t60.5 157q0 92 -56.5 133t-160.5 41q-47 0 -89 -1t-61 -1v206h70q47 0 88 4.5t74 18.5q10 4 26.5 17.5t32.5 37t27.5 55t11.5 72.5q0 82 -52 119t-145 37q-41 0 -80.5 -6t-72.5 -14.5 t-54.5 -16.5t-27.5 -10l-49 209q14 6 43.5 16t75 21.5t102.5 19.5t125 8q203 0 316.5 -86t113.5 -252q0 -123 -57.5 -199.5t-137.5 -119.5q106 -29 171 -106t65 -216q0 -111 -36 -190.5t-99.5 -131t-151.5 -75t-194 -23.5q-82 0 -148.5 15.5t-117 34t-82 36t-46.5 21.5z" />
<glyph unicode="4" horiz-adv-x="1050" d="M57 350v185l359 813h291l-330 -768h227v235l283 41v-276h106v-230h-106v-350h-283v350h-547z" />
<glyph unicode="5" horiz-adv-x="935" d="M41 88l74 180q18 -10 50 -23.5t70.5 -24.5t80.5 -19t81 -8q92 0 139.5 60t47.5 173q0 106 -50.5 162.5t-146.5 56.5q-59 0 -112.5 -16.5t-69.5 -26.5q-18 6 -38 12.5t-38 10.5l55 723h631v-226h-418l-20 -295q23 10 48.5 16.5t59.5 6.5q172 0 278.5 -106.5t106.5 -321.5 q0 -121 -34.5 -205t-96 -138t-145.5 -79t-184 -25q-82 0 -143.5 14.5t-105.5 34t-73 38t-47 26.5z" />
<glyph unicode="6" horiz-adv-x="983" d="M61 510q0 180 50.5 321.5t135.5 248t197.5 181t235.5 123.5l84 -196q-115 -49 -212 -137t-151 -230q35 14 82 26.5t101 12.5q80 0 143.5 -29.5t108.5 -83t69.5 -127t24.5 -159.5q0 -121 -34 -212t-93.5 -151.5t-138 -91.5t-170.5 -31q-90 0 -169 31t-137.5 95.5 t-92.5 166t-34 242.5zM344 434q4 -115 45 -184.5t113 -69.5t110.5 68.5t38.5 197.5q0 115 -40.5 172.5t-106.5 57.5q-45 0 -82 -17.5t-64 -46.5q-8 -39 -11 -84t-3 -94z" />
<glyph unicode="7" horiz-adv-x="856" d="M27 1114v234h794v-172q-41 -98 -93 -230.5t-108.5 -285t-117 -320.5t-117.5 -340h-299q29 82 70 190.5t86 224t92 230.5t87 213t68.5 170t38.5 102z" />
<glyph unicode="8" horiz-adv-x="995" d="M57 393q0 139 64.5 216t171.5 106q-80 43 -137.5 119.5t-57.5 199.5q0 82 30 145.5t84 106.5t129 64.5t167 21.5q184 0 286.5 -86t102.5 -252q0 -123 -57.5 -199.5t-137.5 -119.5q106 -29 171 -106t65 -216q0 -111 -33 -190.5t-91 -131t-139 -75t-177 -23.5t-177 23.5 t-139.5 75t-91.5 131.5t-33 190zM356 385q0 -100 38 -150.5t104 -50.5t103.5 50.5t37.5 150.5q0 92 -48 142.5t-134 50.5q-49 0 -75 -50.5t-26 -142.5zM393 1010q0 -31 2 -69t15.5 -70.5t43 -55t85.5 -22.5q25 0 37 20.5t18 53t7 70.5t1 73q0 70 -27.5 110.5t-76.5 40.5 q-51 0 -78 -40.5t-27 -110.5z" />
<glyph unicode="9" horiz-adv-x="983" d="M53 887q0 119 34 210t92.5 152.5t137 92t170.5 30.5q90 0 169 -30.5t137.5 -96t92.5 -166t34 -241.5q0 -182 -50.5 -323.5t-135.5 -248t-196.5 -181.5t-236.5 -124l-84 197q115 47 212 135t151 231q-35 -14 -79 -26.5t-98 -12.5q-80 0 -144 29t-110.5 82t-71 127 t-24.5 164zM330 899q0 -117 40.5 -173t106.5 -56q45 0 82 17.5t62 47.5q16 78 16 183q-4 117 -45 182t-113 65t-110.5 -68.5t-38.5 -197.5z" />
<glyph unicode=":" horiz-adv-x="509" d="M102 190q0 76 44 124t108 48q66 0 109 -48t43 -124q0 -78 -43.5 -124t-108.5 -46q-63 0 -107.5 46.5t-44.5 123.5zM102 821q0 78 44 125t108 47q66 0 109 -47t43 -125t-43.5 -124t-108.5 -46q-63 0 -107.5 46t-44.5 124z" />
<glyph unicode=";" horiz-adv-x="509" d="M66 -246q29 53 56.5 116.5t27.5 111.5q0 39 -11.5 76.5t-11.5 86.5v11q0 66 38 108.5t83 42.5q145 0 145 -180q-4 -53 -23.5 -109.5t-48 -113t-63.5 -110.5t-68 -103q-33 16 -62.5 31.5t-61.5 31.5zM102 821q0 78 44 125t108 47q66 0 109 -47t43 -125t-43.5 -124 t-108.5 -46q-63 0 -107.5 46t-44.5 124z" />
<glyph unicode="&#x3c;" horiz-adv-x="903" d="M96 629v94l664 405v-215l-369 -237l369 -242v-211z" />
<glyph unicode="=" horiz-adv-x="976" d="M86 311v213h803v-213h-803zM86 719v213h803v-213h-803z" />
<glyph unicode="&#x3e;" horiz-adv-x="903" d="M143 223v211l369 242l-369 237v215l664 -405v-94z" />
<glyph unicode="?" horiz-adv-x="770" d="M12 1384q12 6 37 20.5t64 28t93 24.5t126 11q80 0 151.5 -20.5t123.5 -62.5t83 -107.5t31 -157.5q0 -88 -23.5 -149.5t-58.5 -106.5t-77 -80.5t-76.5 -74.5t-58.5 -87.5t-24 -117.5q-18 0 -47.5 -3t-62.5 -6t-61.5 -5.5t-47.5 -2.5q-2 12 -3 24.5t-1 23.5q0 74 18.5 128 t46 97t60.5 78.5t60.5 72.5t46 79t18.5 97q0 78 -40 111t-124 33q-35 0 -68.5 -6t-61 -14.5t-47 -17.5t-26.5 -13zM143 150q0 78 44 125t108 47q66 0 108.5 -47t42.5 -125t-43 -123t-108 -45q-63 0 -107.5 45t-44.5 123z" />
<glyph unicode="@" horiz-adv-x="1632" d="M94 418q0 207 53.5 373.5t151.5 283.5t238.5 180.5t316.5 63.5q160 0 287 -53.5t217 -154.5t138 -247.5t48 -335.5q0 -176 -39 -286.5t-94 -172t-117.5 -83t-111.5 -21.5q-68 0 -129.5 35t-83.5 109q-12 -20 -33 -46t-48.5 -47.5t-63.5 -36t-79 -14.5q-53 0 -103 24.5 t-90 77t-64.5 136.5t-24.5 203t24.5 206.5t64.5 145t92 86t106 28.5q63 0 112 -23.5t90 -41.5q4 12 5 35.5t4 36.5l174 -25v-596q0 -53 13 -92t54 -39q61 0 97 96t36 271q0 307 -119.5 473t-363.5 166q-123 0 -224.5 -44.5t-173 -133.5t-110.5 -222t-39 -309 q0 -330 138.5 -509t406.5 -179q66 0 117 8t82 12l36 -176q-35 -6 -108.5 -18.5t-161.5 -12.5q-172 0 -306 62.5t-226.5 176.5t-140.5 274.5t-48 355.5zM680 420q0 -279 123 -279q47 0 79.5 36t49.5 67v411q-20 16 -49 38t-68 22q-72 0 -103.5 -81t-31.5 -214z" />
<glyph unicode="A" horiz-adv-x="1132" d="M23 0l374 1348h344l369 -1348h-301l-61 233h-377l-62 -233h-286zM414 430h291q-18 88 -40 181.5t-41.5 180.5t-36 163.5t-26.5 131.5q-10 -55 -27.5 -131.5t-37 -163.5t-41 -180.5t-41.5 -181.5z" />
<glyph unicode="B" horiz-adv-x="1048" d="M127 0v1348q51 0 147.5 6t196.5 6q244 0 356.5 -77t112.5 -269q0 -117 -49 -195t-111 -117q43 -14 81 -37.5t65.5 -60.5t44 -90t16.5 -125q0 -205 -121 -304t-383 -99q-109 0 -206 7t-150 7zM399 197q16 0 33 -1t33 -1q121 0 180.5 45t59.5 166q0 94 -57.5 140t-166.5 46 q-23 0 -44 -1t-38 -3v-391zM399 758q16 0 33 -1t33 -1q59 0 99 17.5t64 46.5q22 30 32 67q8 31 8 64v14q-4 94 -41 141t-146 47q-23 0 -44 -1t-38 -3v-391z" />
<glyph unicode="C" horiz-adv-x="976" d="M68 672q0 356 137 529t411 173q63 0 115.5 -8t92.5 -19.5t67 -21.5t39 -14q-10 -53 -19.5 -107.5t-19.5 -107.5q-29 12 -90.5 31.5t-134.5 19.5q-88 0 -145.5 -30t-92.5 -88t-49 -148t-14 -209q0 -121 14 -210t49 -147.5t92.5 -88t145.5 -29.5q74 0 135 19.5t90 31.5 q10 -53 19.5 -107.5t19.5 -107.5q-12 -4 -39 -14.5t-67 -21.5t-92 -19.5t-116 -8.5q-274 0 -411 173t-137 530z" />
<glyph unicode="D" horiz-adv-x="1138" d="M127 0v1348q49 0 142 6t214 6q141 0 251 -30t184.5 -106.5t113.5 -209.5t39 -342q0 -205 -39 -337t-113.5 -210t-184 -108.5t-251.5 -30.5q-119 0 -213 7t-143 7zM412 211q23 -2 47 -2h51q141 0 204.5 115.5t63.5 347.5q0 242 -63.5 353.5t-206.5 111.5q-23 0 -47.5 -1 t-48.5 -3v-922z" />
<glyph unicode="E" horiz-adv-x="921" d="M127 0v1348h729v-232h-442v-311h336v-217h-336v-357h442v-231h-729z" />
<glyph unicode="F" horiz-adv-x="868" d="M127 0v1348h704v-232h-417v-368h348v-218h-348v-530h-287z" />
<glyph unicode="G" horiz-adv-x="1064" d="M68 672q0 356 137 529t411 173q63 0 122 -8t105 -19.5t78.5 -21.5l45.5 -14q-10 -53 -19.5 -107.5t-19.5 -107.5q-14 6 -43 15t-66 16.5t-77 13.5t-76 6q-88 0 -145.5 -30t-92.5 -88t-49 -148t-14 -209q0 -121 14 -210t49 -147.5t92.5 -88t145.5 -29.5h27.5t29.5 2v358 h-141v227h426v-751q-14 -4 -50 -14.5t-88.5 -21.5t-117 -19.5t-136.5 -8.5q-274 0 -411 173t-137 530z" />
<glyph unicode="H" horiz-adv-x="1189" d="M127 0v1348h285v-564h366v564h283v-1348h-283v557h-366v-557h-285z" />
<glyph unicode="I" horiz-adv-x="540" d="M127 0v1348h285v-1348h-285z" />
<glyph unicode="J" horiz-adv-x="555" d="M-43 -338q4 53 7 105.5t7 105.5q63 6 105 68q41 29 57.5 87t16.5 175v1145h282v-1082q0 -190 -26.5 -309t-79 -185.5t-128 -90t-175.5 -23.5q-16 0 -33 1t-33 3z" />
<glyph unicode="K" horiz-adv-x="1103" d="M127 0v1348h285v-590l329 590h318l-381 -611q104 -186 210.5 -368.5t211.5 -368.5h-338l-350 657v-657h-285z" />
<glyph unicode="L" horiz-adv-x="843" d="M127 0v1348h285v-1117h399l-18 -231h-666z" />
<glyph unicode="M" horiz-adv-x="1417" d="M51 0l129 1348h277q10 -29 29.5 -91.5t44 -143.5t52 -172t52 -176t44 -156.5t30.5 -110.5q10 39 30.5 109.5t45 155.5t52 176t53 173t45 144.5t30.5 91.5h278l123 -1348h-287q-2 35 -7 99.5t-10 145.5t-12.5 171t-12.5 173t-10 154.5t-7 114.5q-10 -33 -27.5 -94.5 t-39 -135t-45 -154.5t-45 -151.5t-38 -127t-24.5 -80.5h-195q-8 25 -25.5 80t-39 125.5t-45 150.5t-46 153.5t-40 136t-25.5 97.5l-57 -858h-277z" />
<glyph unicode="N" horiz-adv-x="1183" d="M127 0v1348h256q109 -211 214 -423t212 -423h4q0 20 -3 63t-3 86v697h250v-1348h-254l-430 850h-2q0 -20 3 -62.5t3 -89.5v-698h-250z" />
<glyph unicode="O" horiz-adv-x="1167" d="M68 674q0 358 133 528t381 170t382 -170t134 -528t-134.5 -529.5t-381.5 -171.5q-248 0 -381 171t-133 530zM360 674q0 -225 51.5 -349t170.5 -124q121 0 173 124t52 349t-53.5 348t-171.5 123q-117 0 -169.5 -123t-52.5 -348z" />
<glyph unicode="P" horiz-adv-x="1015" d="M127 0v1348q27 0 66.5 2t87 4t98.5 4t100 2q262 0 374 -117t112 -344q0 -127 -36 -215t-99.5 -142.5t-147.5 -78t-182 -23.5q-27 0 -50.5 1t-46.5 3v-444h-276zM403 653h76q88 0 143.5 53.5t55.5 192.5q0 125 -49.5 184.5t-139.5 59.5h-41.5t-44.5 -2v-488z" />
<glyph unicode="Q" horiz-adv-x="1167" d="M68 674q0 358 133 528t381 170t382 -170t134 -528q0 -246 -62.5 -401.5t-183.5 -229.5q59 -53 121.5 -87t101.5 -50l-125 -189q-14 4 -52 17.5t-88 43t-110.5 76.5t-117.5 119q-248 0 -381 171t-133 530zM360 674q0 -225 51.5 -349t170.5 -124q121 0 173 124t52 349 t-53.5 348t-171.5 123q-117 0 -169.5 -123t-52.5 -348z" />
<glyph unicode="R" horiz-adv-x="1058" d="M127 0v1348q53 0 154.5 6t207.5 6q248 0 370 -98.5t122 -337.5q0 -82 -18.5 -144.5t-50 -108.5t-72.5 -76t-84 -46l262 -549h-301l-215 512q-39 0 -66.5 2t-38.5 2v-516h-270zM397 723q16 0 52 -3t75 -3q82 0 126 52t44 159q0 109 -43 162t-141 53q-27 0 -54.5 -1 t-58.5 -3v-416z" />
<glyph unicode="S" horiz-adv-x="917" d="M47 74l66 207q14 -6 41.5 -19.5t63.5 -27t77 -24.5t82 -11q37 0 72.5 9t64.5 27.5t46.5 47t17.5 69.5q0 57 -38 98.5t-94.5 78t-122 75.5t-122 90t-94 120t-37.5 169q0 180 113.5 284.5t318.5 104.5q76 0 136 -11t104 -26.5t74 -30t46 -20.5l-65 -207q-16 6 -44 19.5 t-63 27t-76 24.5t-82 11q-47 0 -79.5 -15.5t-54 -38t-31 -49t-9.5 -46.5q0 -61 38 -106.5t94.5 -83.5t122 -76.5t122 -88t94 -116t37.5 -160.5q0 -193 -112.5 -299.5t-335.5 -106.5q-78 0 -138.5 13.5t-106.5 31t-78 34t-48 22.5z" />
<glyph unicode="T" horiz-adv-x="903" d="M31 1116v232h841l-2 -232h-276v-1116h-285v1116h-278z" />
<glyph unicode="U" horiz-adv-x="1134" d="M111 633v715h284v-715q0 -113 5.5 -194t22.5 -134t51 -78.5t93 -25.5t93 25.5t51.5 78.5t21.5 134t4 194v715h281v-715q0 -178 -23.5 -304t-77 -205t-139.5 -115t-211 -36q-123 0 -210 36t-142 115t-79.5 205t-24.5 304z" />
<glyph unicode="V" horiz-adv-x="1083" d="M25 1348h292l205 -928l25 -203l24 203l205 928h293l-377 -1348h-291z" />
<glyph unicode="W" horiz-adv-x="1513" d="M20 1348h287l166 -912l176 805h221l177 -805l167 912h277l-281 -1348h-268l-184 858l-193 -858h-264z" />
<glyph unicode="X" horiz-adv-x="1101" d="M6 0l379 678l-362 670h327q12 -29 40 -91.5t59.5 -135t60.5 -139.5t41 -99q12 35 41 101.5t61.5 138t61 134t41.5 91.5h323l-362 -672q96 -170 190 -338t189 -338h-336q-12 29 -42 92.5t-62.5 135t-62.5 139t-42 106.5q-14 -37 -45 -104.5t-63.5 -140t-62.5 -136 t-44 -92.5h-330z" />
<glyph unicode="Y" horiz-adv-x="1081" d="M-4 1348h305q35 -94 72 -191.5t68.5 -184.5t58 -159t41.5 -113q14 41 40.5 113t58.5 159t68.5 184t71.5 192h305q-92 -207 -183 -412t-183 -410l-35 -82v-444h-285v444l-37 82q-92 205 -183 410t-183 412z" />
<glyph unicode="Z" horiz-adv-x="952" d="M57 0v184l504 934h-489v230h807v-185q-125 -236 -250 -467t-252 -467h510v-229h-830z" />
<glyph unicode="[" horiz-adv-x="636" d="M160 -295v1854h456v-189h-225v-1476h225v-189h-456z" />
<glyph unicode="\" horiz-adv-x="800" d="M-10 1470h248q86 -281 171 -555t160.5 -508.5t135 -413.5t94.5 -269h-248q-35 90 -94.5 269t-135 413.5t-161.5 509t-170 554.5z" />
<glyph unicode="]" horiz-adv-x="636" d="M23 -106h225v1476h-225v186h456v-1851h-456v189z" />
<glyph unicode="^" horiz-adv-x="886" d="M98 1073l310 311h73l310 -311l-117 -121q-57 53 -113.5 105.5t-116.5 105.5q-59 -53 -115.5 -105t-113.5 -106z" />
<glyph unicode="_" horiz-adv-x="980" d="M23 -158h935v-204h-935v204z" />
<glyph unicode="`" horiz-adv-x="735" d="M104 1477l154 149l285 -342l-119 -110z" />
<glyph unicode="a" horiz-adv-x="956" d="M47 293q0 195 123 278.5t367 83.5l47 -4v25q0 63 -13.5 101t-37 58.5t-55.5 26.5t-70 6q-70 0 -142.5 -15t-113.5 -30l-31 189q25 8 60.5 19t79.5 20.5t93 16.5t101 7q211 0 307 -99t96 -308v-668h-254q-4 29 -7 57.5t-7 57.5q-10 -10 -28.5 -33t-49.5 -46.5t-77 -42 t-107 -18.5q-57 0 -108.5 18.5t-89.5 57.5t-60.5 98.5t-22.5 143.5zM313 326q0 -72 29 -111t90 -39q33 0 57.5 9.5t43 23.5t30.5 29.5t21 25.5v232h-27.5t-28.5 2q-117 0 -166 -37t-49 -135z" />
<glyph unicode="b" d="M100 0v1473l277 40v-581q20 20 49 46t63.5 47.5t76.5 35.5t89 14q68 0 128.5 -30.5t105.5 -96t71.5 -166t26.5 -241.5q0 -137 -29.5 -241.5t-80 -174.5t-117 -104.5t-142.5 -34.5q-53 0 -93 13t-70.5 33.5t-55 44t-43.5 44.5l-22 -121h-234zM377 279q31 -23 62.5 -41.5 t66.5 -18.5q100 0 148 69.5t48 229.5q0 182 -40.5 253t-120.5 71q-29 0 -54.5 -10.5t-47 -25.5t-38 -31.5t-24.5 -29.5v-466z" />
<glyph unicode="c" horiz-adv-x="788" d="M57 510q0 287 114 426t331 139q86 0 151.5 -16.5t94.5 -26.5l-33 -203q-20 8 -69.5 20.5t-104.5 12.5q-102 0 -150.5 -81t-48.5 -261q0 -182 50 -256t140 -74q63 0 114.5 24t74.5 32l63 -176q-14 -6 -40.5 -21.5t-64.5 -32t-87 -29t-109 -12.5q-207 0 -316.5 130.5 t-109.5 404.5z" />
<glyph unicode="d" d="M55 504q0 158 35 266.5t94.5 175t137 96t163.5 29.5q43 0 89.5 -12t93.5 -33v447l274 40v-1513h-233l-17 123q-25 -27 -56.5 -52.5t-69.5 -47t-84 -35t-97 -13.5q-68 0 -128 30t-104 93.5t-71 163.5t-27 242zM342 528q0 -92 10 -153.5t30.5 -99t50.5 -53t69 -15.5 q53 0 97 31.5t69 66.5v518q-29 16 -62 26.5t-67 10.5q-100 0 -148.5 -73.5t-48.5 -258.5z" />
<glyph unicode="e" horiz-adv-x="935" d="M57 498q0 147 34 255.5t91.5 180.5t134 106.5t164.5 34.5t161 -27.5t125 -88t82 -152.5t30 -221q0 -55 -5.5 -95t-7.5 -49h-534q2 -137 61.5 -197.5t147.5 -60.5q82 0 148.5 28t103.5 44l55 -180q-12 -8 -41 -24.5t-75 -34t-107.5 -30t-137.5 -12.5q-90 0 -167.5 30 t-136 93.5t-92.5 161.5t-34 238zM332 614h280q0 78 -10 129.5t-27.5 81t-42 42t-53.5 12.5q-27 0 -53.5 -13.5t-47 -44t-33.5 -82t-13 -125.5z" />
<glyph unicode="f" horiz-adv-x="632" d="M25 850v203h112v123q0 188 65.5 274t207.5 86q98 0 150 -16.5t73 -24.5l-4 -98t-6 -99q-12 4 -45 11.5t-74 7.5q-53 0 -71.5 -39t-18.5 -141v-84h188v-203h-188v-850h-277v850h-112z" />
<glyph unicode="g" d="M55 489q0 143 30 252t81 180.5t116.5 107.5t139.5 36q90 0 149.5 -42t116.5 -114q6 35 11.5 72t9.5 72h233v-1139q0 -205 -94 -306.5t-299 -101.5q-55 0 -106.5 7.5t-96.5 16.5t-80 20.5t-59 19.5l31 188q41 -14 113.5 -29.5t148.5 -15.5q37 0 67.5 6.5t53 27t36 58 t13.5 101.5v211h-2q-20 -25 -49 -49.5t-65 -45t-78 -34t-91 -13.5q-70 0 -130 31t-104.5 94.5t-70 159.5t-25.5 229zM342 516q0 -86 10 -145.5t29.5 -95t47.5 -51t63 -15.5q61 0 107 37t69 71v418q-55 59 -92 81t-82 22q-96 0 -124 -82t-28 -240z" />
<glyph unicode="h" horiz-adv-x="1036" d="M100 0v1473l277 40v-595h4q10 10 33.5 35.5t59.5 53t85 48t113 20.5q145 0 206.5 -90t61.5 -276v-709h-276v641q0 113 -23 154t-86 41q-31 0 -59.5 -14.5t-52 -33t-41 -38t-25.5 -29.5v-721h-277z" />
<glyph unicode="i" horiz-adv-x="489" d="M92 1374q0 74 45 121t111 47t110.5 -47t44.5 -121t-45 -120t-110 -46q-66 0 -111 46t-45 120zM106 0v1032l277 41v-1073h-277z" />
<glyph unicode="j" horiz-adv-x="499" d="M-45 -473l12 203q41 4 70 16t46 36.5t25.5 66.5t8.5 106v1077l274 41v-1145q0 -113 -21.5 -191.5t-62.5 -127.5t-103.5 -71.5t-144.5 -22.5q-29 0 -54 4zM96 1374q0 74 46 121t112 47q63 0 108.5 -47t45.5 -121t-45.5 -120t-108.5 -46q-66 0 -112 46t-46 120z" />
<glyph unicode="k" horiz-adv-x="974" d="M102 0v1473l275 40v-917l266 457h309l-338 -469l375 -584h-330l-282 502v-502h-275z" />
<glyph unicode="l" horiz-adv-x="477" d="M100 0v1473l277 40v-1513h-277z" />
<glyph unicode="m" horiz-adv-x="1468" d="M106 0v1053h244l12 -142q12 14 33 41t52.5 54.5t75.5 48t104 20.5q90 0 145 -34.5t78 -127.5q12 18 35.5 45t56.5 53.5t77 45t99 18.5q135 0 194.5 -83t59.5 -281v-711h-274v688q0 70 -16.5 109t-69.5 39q-27 0 -50.5 -13.5t-42 -32t-30.5 -38t-19 -31.5v-721h-264v688 q0 70 -16.5 109t-69.5 39q-27 0 -50.5 -13.5t-41.5 -32t-30.5 -38t-18.5 -31.5v-721h-273z" />
<glyph unicode="n" horiz-adv-x="1040" d="M106 0v1053h244l12 -135h5l35.5 35.5t64.5 53t91 48t118 20.5q145 0 206.5 -90t61.5 -276v-709h-276v641q0 113 -22.5 154t-86.5 41q-31 0 -59.5 -14.5t-52 -33t-41 -38t-25.5 -29.5v-721h-275z" />
<glyph unicode="o" horiz-adv-x="1017" d="M57 526q0 147 32 252t90.5 171.5t142.5 96t186 29.5t185 -29.5t142.5 -96t92.5 -171.5t33 -252q0 -150 -33 -254t-92.5 -170.5t-142.5 -96.5t-185 -30t-186 30t-142.5 96.5t-90.5 171t-32 253.5zM342 526q0 -186 40 -267t126 -81t126 81t40 267q0 184 -40 265t-126 81 t-126 -80.5t-40 -265.5z" />
<glyph unicode="p" d="M100 -469v1522h256l13 -140h4q14 20 39.5 48t60.5 53.5t81 43t99 17.5q70 0 130.5 -31.5t105.5 -97t71.5 -167t26.5 -238.5q0 -145 -30.5 -252t-85 -176.5t-128 -103.5t-159.5 -34q-111 0 -209 41v-485h-275zM377 201q57 -27 121 -27q104 0 154 79t50 265 q0 182 -40.5 253t-120.5 71q-27 0 -52.5 -12.5t-48 -31t-39 -39t-24.5 -34.5v-524z" />
<glyph unicode="q" d="M55 506q0 137 30 242.5t81 175t118.5 105.5t143.5 36h6q74 0 132 -46q61 -48 106 -110q6 37 9 72t7 72h254v-1522h-272v586h-2q-18 -23 -46 -47.5t-64 -46t-79 -35t-92 -13.5q-70 0 -130 30t-105.5 94.5t-71 165t-25.5 241.5zM342 530q0 -92 9 -154.5t28.5 -99t49.5 -52 t69 -15.5q27 0 53.5 11t49 27.5t39.5 35t28 34.5v418q-41 49 -86 81t-95 32q-74 0 -109.5 -73t-35.5 -245z" />
<glyph unicode="r" horiz-adv-x="688" d="M106 0v1053h244l15 -142h2q35 72 96 119t131 47q31 0 50.5 -7t29.5 -11l-21 -244q-18 4 -49 13.5t-61 9.5q-41 0 -76 -26t-86 -87v-725h-275z" />
<glyph unicode="s" horiz-adv-x="770" d="M37 57l47 185q12 -4 36.5 -15.5t57.5 -22.5t69 -19.5t70 -8.5q59 0 92 18.5t33 77.5q0 43 -27.5 77t-70.5 65.5t-91 66.5t-91 77t-71 94.5t-28 123.5q0 141 92.5 220t262.5 79q104 0 171.5 -16.5t96.5 -26.5q-4 -51 -8 -101l-8 -100q-23 6 -84.5 22.5t-124.5 16.5 q-131 0 -131 -82q0 -39 29.5 -70.5t73.5 -62t95.5 -64.5t95.5 -76t73.5 -97.5t29.5 -128.5q0 -66 -20.5 -123t-64.5 -99t-112.5 -67t-164.5 -25q-66 0 -119 10.5t-94 24t-70 26.5t-45 21z" />
<glyph unicode="t" horiz-adv-x="677" d="M25 850v203h112v254l275 41v-295h225v-203h-225v-506q0 -68 16 -100.5t64 -32.5q47 0 82.5 14.5t46.5 16.5l26 -197q-12 -4 -33.5 -15.5t-52.5 -23.5t-71.5 -21.5t-90.5 -9.5q-143 0 -202.5 75t-59.5 255v545h-112z" />
<glyph unicode="u" horiz-adv-x="1038" d="M96 342v711h277v-574q0 -76 3 -126t15 -80.5t35 -43t59 -12.5q29 0 55.5 13.5t50 32t41 39t27.5 32.5v719h277v-1053h-240l-16 141l-57 -51q-12 -10 -34 -29.5t-54.5 -38t-74.5 -33t-93 -14.5q-145 0 -208 90.5t-63 276.5z" />
<glyph unicode="v" horiz-adv-x="958" d="M18 1053h283l100 -437l76 -438l76 438l100 437h283l-309 -1053h-299z" />
<glyph unicode="w" horiz-adv-x="1435" d="M23 1053h272l154 -713l159 713h230l168 -713l145 713h262l-278 -1053h-263l-159 684l-172 -684h-252z" />
<glyph unicode="x" horiz-adv-x="935" d="M10 0l299 545l-278 508h297q10 -20 29.5 -69.5t42 -105t43 -108.5t30.5 -84q2 0 12.5 26.5t25.5 66.5t33.5 86t34 87t25.5 70t12 31h289q-70 -129 -139.5 -258t-140.5 -258l299 -537h-295q-12 23 -35 72t-48.5 107.5t-49 114.5t-35.5 91q-12 -35 -35 -91t-47.5 -114.5 t-46 -107.5t-31.5 -72h-291z" />
<glyph unicode="y" horiz-adv-x="940" d="M14 1053h289q8 -31 21.5 -87.5t30 -126t35 -147.5t34.5 -151.5t29.5 -138t21.5 -107.5q12 66 37 175.5t50.5 223t50 213t36.5 146.5h279l-346 -1112q-33 -104 -77 -173t-90 -114t-90 -70.5t-77 -44.5q-10 14 -27.5 37t-35 47.5t-34 47t-26.5 36.5q12 10 42 29.5 t64.5 52.5t66.5 79t48 109z" />
<glyph unicode="z" horiz-adv-x="784" d="M45 0v178l375 664h-350v211h659v-172l-379 -670h385v-211h-690z" />
<glyph unicode="{" horiz-adv-x="675" d="M88 520v195q29 2 55.5 9t48 24.5t34 46t12.5 75.5v312q0 139 21.5 223t68.5 128t124.5 58.5t190.5 14.5v-176q-70 0 -105.5 -13.5t-51 -44.5t-17.5 -78t-2 -114v-322q0 -178 -148 -240q147 -68 148 -245v-328q0 -74 2 -122t18.5 -76.5t52 -40t103.5 -11.5v-176 q-121 0 -198.5 17.5t-124 64.5t-64.5 130t-18 214v252q0 127 -34 173t-116 50z" />
<glyph unicode="|" horiz-adv-x="546" d="M164 -469v2050h221v-2050h-221z" />
<glyph unicode="}" horiz-adv-x="675" d="M31 -205q68 0 103.5 12.5t53 41t19.5 73.5t2 111v340q0 172 147 239q-147 68 -147 246v322q0 74 -2 122t-19.5 76.5t-53.5 40t-103 11.5v176q117 0 195.5 -15.5t125.5 -60.5t66.5 -125t19.5 -211v-272q0 -63 8.5 -103.5t27 -63t47 -32.5t67.5 -12v-195q-37 -2 -65.5 -11 t-47 -31.5t-28 -61.5t-9.5 -103v-276q0 -139 -22.5 -221t-71.5 -125t-127 -55.5t-186 -12.5v176z" />
<glyph unicode="~" horiz-adv-x="1075" d="M78 719q18 25 48 58.5t68.5 63t85 51t97.5 21.5q61 0 106 -24.5t85 -55t77 -55t80 -24.5q33 0 60.5 10t49 23.5t38 28.5t24.5 26l98 -125q-18 -25 -44.5 -58.5t-61.5 -63.5t-78 -51.5t-98 -21.5q-59 0 -104.5 24.5t-85.5 53.5t-77.5 53.5t-80.5 24.5q-33 0 -64 -11.5 t-55.5 -26.5t-42 -31.5t-25.5 -26.5q-25 35 -49.5 68.5t-50.5 68.5z" />
<glyph unicode="&#xa2;" horiz-adv-x="808" d="M59 655q0 229 81 358.5t227 168.5q-2 53 -3.5 108.5t-1.5 108.5h205q0 -51 -1 -101.5t-3 -103.5q66 -4 118 -17.5t75 -23.5q-10 -49 -18.5 -98t-16.5 -99q-20 8 -70.5 20.5t-107.5 12.5q-100 0 -149.5 -76.5t-49.5 -246.5q0 -164 48 -238t140 -74q66 0 119.5 21.5 t75.5 32.5l64 -172q-12 -4 -33 -16.5t-49.5 -27t-64.5 -26.5t-81 -19q2 -49 3 -99t1 -99h-205q0 51 1.5 101t3.5 102q-145 33 -226.5 155.5t-81.5 347.5z" />
<glyph unicode="&#xa3;" horiz-adv-x="1007" d="M82 618v164h123q-4 45 -6 102.5t-2 102.5q0 193 98 289t285 96q119 0 198.5 -23.5t114.5 -37.5l-35 -197q-27 10 -85 26.5t-128 16.5q-84 0 -121 -44t-37 -140q0 -47 2.5 -97.5t4.5 -93.5h284v-164h-270q2 -33 3 -71.5t1 -77.5q0 -72 -8 -136.5t-27 -119.5h479v-213h-856 v180q47 29 77 64t46 88v131q0 45 -1 83t-3 72h-137z" />
<glyph unicode="&#xa5;" horiz-adv-x="1030" d="M41 1348h307l176 -553q57 158 101.5 290t87.5 263h280q-59 -139 -124.5 -290t-135.5 -296h170v-152h-223q-8 -33 -14.5 -63.5t-12.5 -63.5h250v-151h-256v-332h-278v332h-265v151h258l-26 127h-232v152h172q-59 147 -117.5 292.5t-117.5 293.5z" />
<glyph unicode="&#xa8;" horiz-adv-x="874" d="M68 1376q0 70 39.5 113t99.5 43q59 0 97 -43t38 -113t-38 -112.5t-97 -42.5t-99 43t-40 112zM459 1376q0 70 39 113t98 43t99 -43t40 -113t-40 -112.5t-99 -42.5t-98 43t-39 112z" />
<glyph unicode="&#xa9;" horiz-adv-x="1409" d="M98 672q0 160 46 290t128 222t192.5 142t240.5 50q129 0 239.5 -50t192.5 -142t128 -222t46 -290t-46 -289t-127 -220t-192.5 -141.5t-240.5 -50.5t-241 50.5t-193 141.5t-127 220t-46 289zM260 672q0 -125 34 -225.5t94.5 -171t141 -109.5t172.5 -39q94 0 175 39 t141.5 109.5t95.5 171t35 225.5t-35 225t-95.5 172t-141 111t-175.5 39q-92 0 -172.5 -39t-141 -111t-94.5 -172t-34 -225zM442 668q0 193 74 286t215 93q74 0 113 -13.5t59 -21.5l-12 -66t-14 -67q-14 6 -49 13t-70 7q-72 0 -108 -51t-36 -180t36 -180.5t108 -51.5 q35 0 69.5 7.5t49.5 13.5q8 -35 14 -68t12 -65q-20 -8 -59 -21.5t-113 -13.5q-141 0 -215 93t-74 286z" />
<glyph unicode="&#xab;" horiz-adv-x="978" d="M86 549l307 387l127 -111q-51 -68 -100 -137.5t-101 -136.5l203 -275l-129 -120zM467 549l305 385l125 -111l-197 -272q49 -70 99.5 -137.5t99.5 -134.5q-33 -31 -63.5 -62t-63.5 -59q-76 98 -151.5 195.5t-153.5 195.5z" />
<glyph unicode="&#xad;" horiz-adv-x="653" d="M74 463v221h506v-221h-506z" />
<glyph unicode="&#xae;" horiz-adv-x="1212" d="M98 979q0 139 39 249.5t107.5 188.5t162 119t199.5 41t198.5 -41t161 -119t107.5 -188.5t39 -249.5t-39 -250t-106.5 -188.5t-160.5 -119.5t-200 -42q-109 0 -202 42t-160.5 119.5t-106.5 188.5t-39 250zM231 979q0 -111 29 -198t79 -146.5t117.5 -90t147.5 -30.5 t147.5 30.5t119 90t80 146.5t28.5 198t-28.5 198t-80 146t-119 91t-147.5 32t-147.5 -32t-117.5 -91t-79 -146t-29 -198zM430 676v604q20 0 57 4t103 4q104 0 161.5 -40t57.5 -148q0 -72 -33 -115t-90 -63l141 -246h-139l-92 184q-29 10 -51 23v-207h-115zM545 983 q51 0 97 25.5t46 83.5q0 53 -20.5 73.5t-67.5 20.5h-55v-203z" />
<glyph unicode="&#xb4;" horiz-adv-x="735" d="M207 1284l285 342l155 -149q-80 -78 -160.5 -152t-160.5 -151z" />
<glyph unicode="&#xb8;" horiz-adv-x="724" d="M170 -422l55 107q10 -4 38 -22.5t63 -18.5q39 0 62.5 18.5t23.5 54.5q0 27 -26 43.5t-54.5 29.5t-50 25.5t-15.5 34.5l47 154h123q-2 -12 -11 -32.5t-3 -43.5q2 -6 29 -16q25 -12 50 -27.5t46.5 -40t35 -57.5t13.5 -78q0 -98 -67.5 -149.5t-172.5 -51.5q-37 0 -67.5 9.5 t-55 21.5t-41 23.5t-22.5 15.5z" />
<glyph unicode="&#xbb;" horiz-adv-x="978" d="M78 815l127 119l305 -389l-305 -387l-125 110l196 275zM457 817l127 119l309 -391q-78 -98 -154.5 -194.5t-154.5 -194.5l-125 110q49 70 98 138.5t100 138.5q-51 68 -101 137.5t-99 136.5z" />
<glyph unicode="&#x2c6;" horiz-adv-x="827" d="M96 1374l244 232h133l258 -230l-100 -145l-217 158l-219 -158z" />
<glyph unicode="&#x2da;" horiz-adv-x="878" d="M174 1454q0 100 61.5 166t155.5 66q45 0 85 -17.5t68.5 -48.5t46 -74t17.5 -92q0 -102 -61.5 -168.5t-155.5 -66.5q-96 0 -156.5 66.5t-60.5 168.5zM299 1454q0 -47 25.5 -77.5t66.5 -30.5t65.5 30.5t24.5 77.5t-24.5 77t-65.5 30t-66.5 -30t-25.5 -77z" />
<glyph unicode="&#x2dc;" horiz-adv-x="882" d="M63 1339q18 20 41 53t52.5 62t68.5 50.5t90 21.5q43 0 78 -13.5t65.5 -30t59.5 -29.5t62 -13q25 0 47 9t40.5 21.5t31 23.5t16.5 17l104 -81q-16 -23 -37.5 -55t-51.5 -62.5t-67.5 -52t-89.5 -21.5q-43 0 -76.5 12.5t-64.5 27.5t-60.5 28.5t-62.5 13.5q-25 0 -48 -8 t-41.5 -20.5t-33 -25t-20.5 -20.5z" />
<glyph unicode="&#x401;" horiz-adv-x="921" d="M127 0v1348h729q-4 -57 -9 -114.5t-11 -117.5h-422v-311h336v-217h-336v-357h440l18 -231h-745zM143 1655q0 70 40 112.5t100 42.5q59 0 97 -42.5t38 -112.5t-38 -113t-97 -43t-99.5 43t-40.5 113zM535 1655q0 70 38.5 112.5t98.5 42.5q59 0 99 -42.5t40 -112.5t-40 -113 t-99 -43t-98 43t-39 113z" />
<glyph unicode="&#x402;" horiz-adv-x="1280" d="M29 1118v230h866v-230h-289v-358q14 6 38 20.5t54.5 29.5t69.5 26.5t88 11.5q350 0 350 -502q0 -154 -35.5 -258t-101 -169.5t-160 -97.5t-213.5 -40v223q94 10 159 86t65 229q0 98 -8.5 154.5t-26 85.5t-43 37t-60.5 8q-47 0 -97 -19.5t-79 -37.5v-547h-287v1118h-290z " />
<glyph unicode="&#x403;" horiz-adv-x="808" d="M127 0v1348h657v-246h-372v-1102h-285zM276 1548l285 342l154 -149l-320 -303z" />
<glyph unicode="&#x404;" horiz-adv-x="976" d="M68 672q0 356 137 529t411 173q63 0 115.5 -8t92.5 -19.5t67 -21.5t39 -14q-10 -53 -19.5 -107.5t-19.5 -107.5q-29 12 -90.5 31.5t-134.5 19.5q-152 0 -217.5 -86t-79.5 -262h374v-230h-376q10 -190 76.5 -281t222.5 -91q74 0 135 19.5t90 31.5q10 -53 19.5 -107.5 t19.5 -107.5q-12 -4 -39 -14.5t-67 -21.5t-92 -19.5t-116 -8.5q-274 0 -411 173t-137 530z" />
<glyph unicode="&#x405;" horiz-adv-x="917" d="M47 74l66 207q14 -6 41.5 -19.5t63.5 -27t77 -24.5t82 -11q37 0 72.5 9t64.5 27.5t46.5 47t17.5 69.5q0 57 -38 98.5t-94.5 78t-122 75.5t-122 90t-94 120t-37.5 169q0 180 113.5 284.5t318.5 104.5q76 0 136 -11t104 -26.5t74 -30t46 -20.5l-65 -207q-16 6 -44 19.5 t-63 27t-76 24.5t-82 11q-47 0 -79.5 -15.5t-54 -38t-31 -49t-9.5 -46.5q0 -61 38 -106.5t94.5 -83.5t122 -76.5t122 -88t94 -116t37.5 -160.5q0 -193 -112.5 -299.5t-335.5 -106.5q-78 0 -138.5 13.5t-106.5 31t-78 34t-48 22.5z" />
<glyph unicode="&#x406;" horiz-adv-x="540" d="M127 0v1348h285v-1348h-285z" />
<glyph unicode="&#x407;" horiz-adv-x="540" d="M-63 1640q0 70 39.5 113t97.5 43q59 0 97 -43t38 -113t-38 -112.5t-97 -42.5q-57 0 -97 43t-40 112zM127 0v1348h285v-1348h-285zM328 1640q0 70 39 113t98 43t98 -43t39 -113t-39 -112.5t-98 -42.5t-98 43t-39 112z" />
<glyph unicode="&#x408;" horiz-adv-x="555" d="M-43 -338q4 53 7 105.5t7 105.5q63 6 105 68q41 29 57.5 87t16.5 175v1145h282v-1082q0 -190 -26.5 -309t-79 -185.5t-128 -90t-175.5 -23.5q-16 0 -33 1t-33 3z" />
<glyph unicode="&#x409;" horiz-adv-x="1699" d="M41 -8l4 209q59 4 91 28.5t44 94.5q33 184 50.5 433t31.5 591h787v-492q23 4 66.5 6t92.5 2q96 0 176 -22.5t137.5 -72.5t89 -129t31.5 -191q0 -121 -37.5 -208t-105 -143.5t-163 -84t-208.5 -27.5q-121 0 -216 7t-148 7v1108h-246q-12 -268 -36.5 -479t-53.5 -379 q-14 -80 -40 -132t-64.5 -81t-91 -40t-117.5 -11q-41 0 -74 6zM1049 203q27 -2 52 -2h50q96 0 152.5 60.5t56.5 170.5q0 123 -54.5 174t-146.5 51q-35 0 -67.5 -2t-42.5 -4v-448z" />
<glyph unicode="&#x40a;" horiz-adv-x="1728" d="M127 0v1348h285v-560h366v560h287v-492q23 4 67 6t93 2q96 0 176 -22.5t137 -72.5t89 -129t32 -191q0 -121 -38 -208t-105.5 -143.5t-163 -84t-207.5 -27.5q-121 0 -216 7t-149 7l-2 561h-366v-561h-285zM1065 203q27 -2 52.5 -2h49.5q96 0 152.5 60.5t56.5 170.5 q0 123 -54 174t-146 51q-35 0 -68 -2t-43 -4v-448z" />
<glyph unicode="&#x40b;" horiz-adv-x="1300" d="M29 1118v230h866v-230h-289v-348q20 4 48 16.5t62 24.5t72.5 22.5t83.5 10.5q152 0 236 -91t84 -284v-469h-283v434q0 90 -32.5 128t-102.5 38q-37 0 -76 -14l-92 -35v-551h-287v1118h-290z" />
<glyph unicode="&#x40c;" horiz-adv-x="1103" d="M127 0v1348h285v-590l329 590h318l-381 -611q104 -186 210.5 -368.5t211.5 -368.5h-338l-350 657v-657h-285zM387 1563q72 86 142.5 172t142.5 172l153 -152l-319 -301z" />
<glyph unicode="&#x40e;" horiz-adv-x="1069" d="M12 1348h305q33 -106 69 -216t67.5 -209.5t57.5 -182.5t40 -136l29 92q10 43 31.5 118t48 165t55 186.5t53.5 182.5h295l-369 -1010q-18 -49 -42.5 -106.5t-55.5 -107.5t-69 -85t-85 -39q-39 -4 -75.5 0t-75.5 6v211q41 -2 64.5 15.5t32.5 41t9 48t-4 36.5zM238 1702 q35 12 68.5 25.5t68.5 25.5q0 -16 11 -35.5t32.5 -38t54.5 -31t76 -12.5t75.5 13.5t53 32t32 38t11.5 33.5l137 -47q0 -43 -19.5 -86t-57.5 -79t-96 -58.5t-136 -22.5t-136.5 21.5t-97.5 56.5t-58 78t-19 86z" />
<glyph unicode="&#x40f;" horiz-adv-x="1177" d="M127 0v1348h285v-1112h354v1112h283v-1348h-338v-322h-242v322h-342z" />
<glyph unicode="&#x410;" horiz-adv-x="1132" d="M23 0l374 1348h27.5t28.5 -2v2h288l369 -1348h-301l-61 233h-377l-62 -233h-286zM414 430h291q-18 88 -40 181.5t-41.5 180.5t-36 163.5t-26.5 131.5q-10 -55 -27.5 -131.5t-37 -163.5t-41 -180.5t-41.5 -181.5z" />
<glyph unicode="&#x411;" horiz-adv-x="1064" d="M127 0v1348h799v-234h-514v-272q23 4 66.5 5t92.5 1q96 0 176 -21.5t137.5 -68.5t89.5 -126t32 -192q0 -121 -38 -207t-105.5 -141t-163 -80.5t-207.5 -25.5q-121 0 -216.5 7t-148.5 7zM412 203q27 -2 52 -2h50q96 0 152.5 57t56.5 168q0 121 -54.5 169t-146.5 48 q-35 0 -67.5 -2t-42.5 -4v-434z" />
<glyph unicode="&#x412;" horiz-adv-x="1048" d="M127 0v1348q51 0 147.5 6t196.5 6q244 0 356.5 -77t112.5 -269q0 -117 -49 -195t-111 -117q43 -14 81 -37.5t65.5 -60.5t44 -90t16.5 -125q0 -205 -121 -304t-383 -99q-109 0 -206 7t-150 7zM399 197q16 0 33 -1t33 -1q121 0 180.5 45t59.5 166q0 94 -57.5 140t-166.5 46 q-23 0 -44 -1t-38 -3v-391zM399 768q18 2 39.5 3t48.5 1q55 0 103 6q35 35 56.5 86t21.5 115q0 160 -154 172h-115v-383z" />
<glyph unicode="&#x413;" horiz-adv-x="808" d="M127 0v1348h657v-246h-372v-1102h-285z" />
<glyph unicode="&#x414;" horiz-adv-x="1232" d="M35 215q63 10 106 33q37 61 58.5 162.5t34 241t18.5 314.5t14 382h801v-1112h123v-547h-246v311h-663v-303h-246v518zM393 236h393v872h-268q-4 -154 -10 -289t-18.5 -247.5t-35 -197.5t-61.5 -138z" />
<glyph unicode="&#x415;" horiz-adv-x="921" d="M127 0v1348h729v-232h-442v-311h336v-217h-336v-357h442v-231h-729z" />
<glyph unicode="&#x416;" horiz-adv-x="1677" d="M12 0q104 186 211 368.5t211 368.5l-381 611h318l329 -590v590h285v-590l330 590h317l-381 -611q104 -186 211 -368.5t211 -368.5h-338l-350 657v-657h-285v657l-350 -657h-338z" />
<glyph unicode="&#x417;" horiz-adv-x="954" d="M16 80l76 196q10 -4 36 -16t62.5 -24.5t82.5 -22.5t96 -10q102 0 162.5 46t60.5 157q0 92 -56.5 133t-160.5 41q-47 0 -89 -1t-61 -1v206h70q47 0 87 6.5t75 16.5q8 6 25.5 19.5t32.5 36t27.5 54t12.5 72.5q0 82 -52 119t-145 37q-41 0 -80.5 -6t-72.5 -14.5t-54.5 -16.5 t-27.5 -10l-49 209q14 6 43.5 16t75 21.5t102.5 19.5t125 8q203 0 316.5 -86t113.5 -252q0 -123 -57.5 -199.5t-137.5 -119.5q106 -29 171 -106t65 -216q0 -111 -36 -190.5t-99.5 -131t-151.5 -75t-194 -23.5q-82 0 -148.5 15.5t-117 34t-82 36t-46.5 21.5z" />
<glyph unicode="&#x418;" horiz-adv-x="1187" d="M127 0v1348h270v-686q0 -43 -4 -93.5t-4 -72.5q109 211 214.5 425t213.5 427h242v-1348h-271v680q0 47 5.5 96t5.5 72h-2l-428 -848h-242z" />
<glyph unicode="&#x419;" horiz-adv-x="1187" d="M127 0v1348h270v-686q0 -43 -4 -93.5t-4 -72.5q109 211 214.5 425t213.5 427h242v-1348h-271v680q0 47 5.5 96t5.5 72h-2l-428 -848h-242zM291 1702q35 12 68.5 25.5t68.5 25.5q0 -16 10.5 -35.5t32 -38t54 -31t75.5 -12.5t76 13.5t54.5 32t31.5 38t10 33.5l137 -47 q0 -43 -18.5 -86t-57 -79t-96 -58.5t-137.5 -22.5q-78 0 -136 21.5t-97 56.5t-57.5 78t-18.5 86z" />
<glyph unicode="&#x41a;" horiz-adv-x="1103" d="M127 0v1348h285v-590l329 590h318l-381 -611q104 -186 210.5 -368.5t211.5 -368.5h-338l-350 657v-657h-285z" />
<glyph unicode="&#x41b;" horiz-adv-x="1175" d="M41 -8l4 209q59 4 95 36.5t50 110.5q27 190 43.5 433t28.5 567h785v-1348h-283v1108h-246q-10 -217 -25.5 -406.5t-33.5 -355.5q-12 -104 -43 -174t-77 -111t-108.5 -57t-138.5 -16q-14 0 -26.5 1t-24.5 3z" />
<glyph unicode="&#x41c;" horiz-adv-x="1417" d="M51 0l129 1348h277q10 -29 29.5 -91.5t44 -143.5t52 -172t52 -176t44 -156.5t30.5 -110.5q10 39 30.5 109.5t45 155.5t52 176t53 173t45 144.5t30.5 91.5h278l123 -1348h-287q-2 35 -7 99.5t-10 145.5t-12.5 171t-12.5 173t-10 154.5t-7 114.5q-10 -33 -27.5 -94.5 t-39 -135t-45 -154.5t-45 -151.5t-38 -127t-24.5 -80.5h-195q-8 25 -25.5 80t-39 125.5t-45 150.5t-46 153.5t-40 136t-25.5 97.5l-57 -858h-277z" />
<glyph unicode="&#x41d;" horiz-adv-x="1189" d="M127 0v1348h285v-564h366v564h283v-1348h-283v557h-366v-557h-285z" />
<glyph unicode="&#x41e;" horiz-adv-x="1167" d="M68 674q0 358 133 528t381 170t382 -170t134 -528t-134.5 -529.5t-381.5 -171.5q-248 0 -381 171t-133 530zM360 674q0 -225 51.5 -349t170.5 -124q121 0 173 124t52 349t-53.5 348t-171.5 123q-117 0 -169.5 -123t-52.5 -348z" />
<glyph unicode="&#x41f;" horiz-adv-x="1177" d="M127 0v1348h922v-1348h-283v1112h-354v-1112h-285z" />
<glyph unicode="&#x420;" horiz-adv-x="1015" d="M127 0v1348q27 0 66.5 2t87 4t98.5 4t100 2q262 0 374 -117t112 -344q0 -127 -36 -215t-99.5 -142.5t-147.5 -78t-182 -23.5q-27 0 -50.5 1t-46.5 3v-444h-276zM403 653h76q88 0 143.5 53.5t55.5 192.5q0 125 -49.5 184.5t-139.5 59.5h-41.5t-44.5 -2v-488z" />
<glyph unicode="&#x421;" horiz-adv-x="976" d="M68 672q0 356 137 529t411 173q63 0 115.5 -8t92.5 -19.5t67 -21.5t39 -14q-10 -53 -19.5 -107.5t-19.5 -107.5q-29 12 -90.5 31.5t-134.5 19.5q-88 0 -145.5 -30t-92.5 -88t-49 -148t-14 -209q0 -121 14 -210t49 -147.5t92.5 -88t145.5 -29.5q74 0 135 19.5t90 31.5 q10 -53 19.5 -107.5t19.5 -107.5q-12 -4 -39 -14.5t-67 -21.5t-92 -19.5t-116 -8.5q-274 0 -411 173t-137 530z" />
<glyph unicode="&#x422;" horiz-adv-x="903" d="M31 1116v232h841l-2 -232h-276v-1116h-285v1116h-278z" />
<glyph unicode="&#x423;" horiz-adv-x="1069" d="M12 1348h305q33 -106 69 -216t67.5 -209.5t57.5 -182.5t40 -136l29 92q10 43 31.5 118t48 165t55 186.5t53.5 182.5h295l-369 -1010q-18 -49 -42.5 -106.5t-55.5 -107.5t-69 -85t-85 -39q-39 -4 -75.5 0t-75.5 6v211q41 -2 64.5 15.5t32.5 41t9 48t-4 36.5z" />
<glyph unicode="&#x424;" horiz-adv-x="1429" d="M63 672q0 125 30 222t93.5 164.5t160.5 103.5t233 38v148h268v-148q268 -4 392 -140t124 -384q0 -252 -123 -388t-393 -138v-150h-268v150q-270 4 -393.5 139t-123.5 383zM346 672q0 -162 58.5 -234.5t175.5 -77.5v627q-117 -4 -175.5 -78.5t-58.5 -236.5zM848 360 q119 4 176 78t57 238q0 162 -58 235.5t-175 77.5v-629z" />
<glyph unicode="&#x425;" horiz-adv-x="1101" d="M6 0l379 678l-362 670h327q12 -29 40 -91.5t59.5 -135t60.5 -139.5t41 -99q12 35 41 101.5t61.5 138t61 134t41.5 91.5h323l-362 -672q96 -170 190 -338t189 -338h-336q-12 29 -42 92.5t-62.5 135t-62.5 139t-42 106.5q-14 -37 -45 -104.5t-63.5 -140t-62.5 -136 t-44 -92.5h-330z" />
<glyph unicode="&#x426;" horiz-adv-x="1216" d="M127 0v1348h285v-1112h354v1112h283v-1112h122v-547h-247v311h-797z" />
<glyph unicode="&#x427;" horiz-adv-x="1101" d="M90 924v424h283v-449q0 -111 31.5 -152.5t105.5 -41.5q61 0 106.5 18t73.5 29v596h283v-1348h-283v547q-10 -4 -32.5 -15.5t-56.5 -23.5t-78 -21.5t-99 -9.5q-92 0 -156.5 26.5t-103.5 81t-56.5 138.5t-17.5 201z" />
<glyph unicode="&#x428;" horiz-adv-x="1644" d="M127 0v1348h285v-1112h270v1112h281v-1112h268v1112h285v-1348h-1389z" />
<glyph unicode="&#x429;" horiz-adv-x="1683" d="M127 0v1348h285v-1112h270v1112h281v-1112h268v1112h285v-1112h122v-547h-247v311h-1264z" />
<glyph unicode="&#x42a;" horiz-adv-x="1245" d="M10 1348h602v-492q23 4 67 6t93 2q96 0 176 -22.5t137.5 -72.5t89 -129t31.5 -191q0 -121 -38 -208t-105.5 -143.5t-162.5 -84t-208 -27.5q-121 0 -216 7t-148 7v1110l-316 2zM612 203q27 -2 52.5 -2h50.5q96 0 152.5 60.5t56.5 170.5q0 123 -54.5 174t-146.5 51 q-35 0 -67.5 -2t-43.5 -4v-448z" />
<glyph unicode="&#x42b;" horiz-adv-x="1552" d="M127 0v1348h285v-492q23 4 66.5 6t92.5 2q96 0 176 -22.5t137.5 -72.5t89.5 -129t32 -191q0 -121 -38 -208t-105.5 -143.5t-163 -84t-207.5 -27.5q-121 0 -216.5 7t-148.5 7zM412 203q27 -2 52 -2h50q96 0 152.5 60.5t56.5 170.5q0 123 -54.5 174t-146.5 51 q-35 0 -67.5 -2t-42.5 -4v-448zM1141 0v1348h284v-1348h-284z" />
<glyph unicode="&#x42c;" horiz-adv-x="1058" d="M127 0v1348h285v-492q23 4 66.5 6t92.5 2q96 0 176 -22.5t137.5 -72.5t89.5 -129t32 -191q0 -121 -38 -208t-105.5 -143.5t-163 -84t-207.5 -27.5q-121 0 -216.5 7t-148.5 7zM412 203q27 -2 52 -2h50q96 0 152.5 60.5t56.5 170.5q0 123 -54.5 174t-146.5 51 q-35 0 -67.5 -2t-42.5 -4v-448z" />
<glyph unicode="&#x42d;" horiz-adv-x="966" d="M29 33q10 53 19 107.5t20 107.5q29 -12 90 -31.5t135 -19.5q156 0 222.5 91t76.5 281h-377v230h375q-14 176 -80 262t-217 86q-74 0 -135.5 -19.5t-89.5 -31.5q-10 53 -19.5 107t-19.5 108q12 4 38.5 14t66.5 21.5t92.5 19.5t115.5 8q274 0 411.5 -173t137.5 -529 t-137.5 -529.5t-411.5 -173.5q-63 0 -115.5 8.5t-92.5 19.5t-66.5 21.5t-38.5 14.5z" />
<glyph unicode="&#x42e;" horiz-adv-x="1703" d="M127 0v1348h285v-555h209q20 297 145 438t354 141q248 0 381 -170t133 -528t-133 -529.5t-381 -171.5q-229 0 -355 142.5t-147 445.5h-206v-561h-285zM899 674q0 -109 11.5 -197t38 -149.5t68.5 -94t101 -32.5q119 0 171 127t52 346t-52 345t-171 126t-169 -126t-50 -345 z" />
<glyph unicode="&#x42f;" horiz-adv-x="1069" d="M43 0l262 549q-43 16 -84 46t-72.5 76t-50 108.5t-18.5 144.5q0 240 122 338t369 98q106 0 208 -6t155 -6v-1348h-270v516q-10 0 -38 -2t-67 -2l-215 -512h-301zM367 928q0 -106 44 -158.5t126 -52.5q39 0 74.5 3t52.5 3v416q-31 2 -58.5 3t-54.5 1q-98 0 -141 -53.5 t-43 -161.5z" />
<glyph unicode="&#x430;" horiz-adv-x="956" d="M47 293q0 195 123 278.5t367 83.5l47 -4v25q0 63 -13.5 101t-37 58.5t-55.5 26.5t-70 6q-70 0 -142.5 -15t-113.5 -30l-31 189q25 8 60.5 19t79.5 20.5t93 16.5t101 7q211 0 307 -99t96 -308v-668h-254q-4 29 -7 57.5t-7 57.5q-10 -10 -28.5 -33t-49.5 -46.5t-77 -42 t-107 -18.5q-57 0 -108.5 18.5t-89.5 57.5t-60.5 98.5t-22.5 143.5zM313 326q0 -72 29 -111t90 -39q33 0 57.5 9.5t43 23.5t30.5 29.5t21 25.5v232h-27.5t-28.5 2q-117 0 -166 -37t-49 -135z" />
<glyph unicode="&#x431;" horiz-adv-x="995" d="M59 575q0 193 33 332.5t98.5 238.5t163 167.5t228.5 118.5q47 18 93 44.5t93 49.5l106 -178q-59 -37 -115.5 -78t-121.5 -70q-72 -31 -123 -61.5t-87 -68.5t-57.5 -85t-33.5 -111q10 14 29.5 33t48 35t65.5 27.5t84 11.5q168 0 269.5 -115.5t101.5 -355.5 q0 -139 -32 -239.5t-90 -167t-140 -98.5t-183 -32q-98 0 -178 28t-135 95.5t-86 184t-31 294.5zM342 512q0 -176 35 -252t119 -76q86 0 120.5 78t34.5 232t-33.5 225.5t-117.5 71.5q-59 0 -91 -20.5t-47.5 -57.5t-17.5 -88.5t-2 -112.5z" />
<glyph unicode="&#x432;" horiz-adv-x="954" d="M106 0v1053q25 0 64 2t85 4t96 4t98 2q217 0 313 -61.5t96 -206.5q0 -49 -15.5 -89t-41 -70t-57 -51.5t-62.5 -35.5q31 -4 67.5 -16.5t69.5 -40t55.5 -74.5t22.5 -119q0 -156 -97.5 -235.5t-318.5 -79.5q-125 0 -221 7t-154 7zM371 172q25 -2 49 -3t49 -1q150 0 149 158 q0 66 -36.5 97.5t-104.5 31.5h-106v-283zM371 610h100q6 0 25.5 3t40 16.5t37 43t16.5 85.5q0 63 -29 91t-82 32l-108 -4v-267z" />
<glyph unicode="&#x433;" horiz-adv-x="677" d="M106 0v1053h547l-2 -219h-270v-834h-275z" />
<glyph unicode="&#x434;" horiz-adv-x="1097" d="M29 195q72 0 108.5 78.5t52 202.5t17.5 276.5t6 300.5h739v-840h111v-512h-236v299h-565v-299h-233v494zM377 213h307v637h-225q-2 -92 -3 -185.5t-7.5 -177.5t-22.5 -154.5t-49 -119.5z" />
<glyph unicode="&#x435;" horiz-adv-x="935" d="M57 498q0 147 34 255.5t91.5 180.5t134 106.5t164.5 34.5t161 -27.5t125 -88t82 -152.5t30 -221q0 -55 -5.5 -95t-7.5 -49h-534q2 -137 61.5 -197.5t147.5 -60.5q82 0 148.5 28t103.5 44l55 -180q-12 -8 -41 -24.5t-75 -34t-107.5 -30t-137.5 -12.5q-90 0 -167.5 30 t-136 93.5t-92.5 161.5t-34 238zM332 610h120.5t159.5 4q0 78 -10 129.5t-27.5 81t-42 42t-53.5 12.5q-27 0 -53.5 -14.5t-47 -46.5t-33.5 -83t-13 -125z" />
<glyph unicode="&#x436;" horiz-adv-x="1523" d="M12 0l375 584l-338 469h309l267 -457v457h274v-457l266 457h310l-338 -469l374 -584h-329l-283 502v-502h-274v502l-283 -502h-330z" />
<glyph unicode="&#x437;" horiz-adv-x="784" d="M8 53l55 174q6 -2 24.5 -10t46.5 -16t62.5 -15.5t75.5 -7.5q78 0 126 35t48 106q0 72 -43 98.5t-118 26.5q-33 0 -69 -1t-50 -1v179q12 -2 28.5 0t38.5 2h52t62 10t51.5 38.5t21.5 88.5q0 59 -43 86.5t-115 27.5q-63 0 -113.5 -14t-58.5 -18q-10 47 -20.5 92t-20.5 92 q23 8 95.5 28.5t193.5 20.5q74 0 139.5 -14t113.5 -47t76.5 -83t28.5 -122q0 -57 -15 -99t-40 -73t-57.5 -51.5t-65.5 -32.5q33 -4 69 -18.5t66.5 -44t51 -75.5t20.5 -112q0 -84 -29.5 -146.5t-82 -102.5t-127 -59.5t-162.5 -19.5q-66 0 -118 9.5t-91 22.5t-65.5 26.5 t-41.5 19.5z" />
<glyph unicode="&#x438;" horiz-adv-x="1058" d="M106 0v1053h265v-531q0 -25 -3 -54.5t-3 -45.5q2 0 2 -2l356 633h227v-1053h-264v506q0 29 3 60.5t3 47.5h-2l-352 -614h-232z" />
<glyph unicode="&#x439;" horiz-adv-x="1058" d="M106 0v1053h265v-531q0 -25 -3 -54.5t-3 -45.5q2 0 2 -2l356 633h227v-1053h-264v506q0 29 3 60.5t3 47.5h-2l-352 -614h-232zM225 1438q35 12 69 25.5t68 25.5q0 -16 10.5 -35.5t32 -38t54.5 -31t76 -12.5t75.5 13.5t54 32t32 38t10.5 33.5l137 -47q0 -43 -18.5 -86 t-57.5 -79t-96.5 -58.5t-136.5 -22.5q-78 0 -136.5 21.5t-97.5 56.5t-57.5 78t-18.5 86z" />
<glyph unicode="&#x43a;" horiz-adv-x="974" d="M102 0v1053h275v-457l266 457h309l-338 -469l375 -584h-330l-282 502v-502h-275z" />
<glyph unicode="&#x43b;" horiz-adv-x="1040" d="M27 -6l14 190q23 6 42 11.5t35.5 17.5t29 35.5t18.5 68.5q18 141 29.5 322.5t19.5 413.5h719v-1053h-275v836h-200q-8 -317 -37 -555q-10 -82 -31.5 -137.5t-60.5 -89.5t-96.5 -49t-139.5 -15q-18 0 -34.5 1t-32.5 3z" />
<glyph unicode="&#x43c;" horiz-adv-x="1216" d="M61 0q31 264 61 525t58 526h240q8 -23 22.5 -71t34 -109.5t40 -130t38.5 -134t33.5 -120t23.5 -87.5q8 33 23.5 87.5t33 119t38 134t38 131t32 109.5t22.5 71h243l111 -1051h-254q-4 41 -10 127t-12.5 184.5t-13.5 192.5t-9 151q-8 -31 -20.5 -80t-29 -105t-32.5 -116.5 t-31.5 -114t-28 -94.5t-18.5 -61h-131l-45 4q0 -2 -1 -2t-1 -2q-6 20 -18.5 61t-26.5 94.5t-31.5 114t-32 116.5t-26.5 105.5t-19 79.5q-4 -57 -11 -151t-15 -192.5t-14.5 -184.5t-10.5 -127h-250z" />
<glyph unicode="&#x43d;" horiz-adv-x="1048" d="M106 0v1053h275v-400h287v400h274v-1053h-274v444h-287v-444h-275z" />
<glyph unicode="&#x43e;" horiz-adv-x="1017" d="M57 526q0 147 32 252t90.5 171.5t142.5 96t186 29.5t185 -29.5t142.5 -96t92.5 -171.5t33 -252q0 -150 -33 -254t-92.5 -170.5t-142.5 -96.5t-185 -30t-186 30t-142.5 96.5t-90.5 171t-32 253.5zM342 526q0 -186 40 -267t126 -81t126 81t40 267q0 184 -40 265t-126 81 t-126 -80.5t-40 -265.5z" />
<glyph unicode="&#x43f;" horiz-adv-x="1042" d="M106 0v1053h832v-1053h-276v836h-281v-836h-275z" />
<glyph unicode="&#x440;" d="M100 -469v1522h256l13 -140h4q14 20 39.5 48t60.5 53.5t81 43t99 17.5q70 0 130.5 -31.5t105.5 -97t71.5 -167t26.5 -238.5q0 -145 -30.5 -252t-85 -176.5t-128 -103.5t-159.5 -34q-111 0 -209 41v-485h-275zM377 201q57 -27 121 -27q104 0 154 79t50 265 q0 182 -40.5 253t-120.5 71q-27 0 -52.5 -12.5t-48 -31t-39 -39t-24.5 -34.5v-524z" />
<glyph unicode="&#x441;" horiz-adv-x="788" d="M57 510q0 287 114 426t331 139q86 0 151.5 -16.5t94.5 -26.5l-33 -203q-20 8 -69.5 20.5t-104.5 12.5q-102 0 -150.5 -81t-48.5 -261q0 -182 50 -256t140 -74q63 0 114.5 24t74.5 32l63 -176q-14 -6 -40.5 -21.5t-64.5 -32t-87 -29t-109 -12.5q-207 0 -316.5 130.5 t-109.5 404.5z" />
<glyph unicode="&#x442;" horiz-adv-x="804" d="M20 834v219h760l2 -219h-241v-834h-275v834h-246z" />
<glyph unicode="&#x443;" horiz-adv-x="940" d="M14 1053h289q8 -31 21.5 -87.5t30 -126t35 -147.5t34.5 -151.5t29.5 -138t21.5 -107.5q12 66 37 175.5t50.5 223t50 213t36.5 146.5h279l-346 -1112q-33 -104 -77 -173t-90 -114t-90 -70.5t-77 -44.5q-10 14 -27.5 37t-35 47.5t-34 47t-26.5 36.5q12 10 42 29.5 t64.5 52.5t66.5 79t48 109z" />
<glyph unicode="&#x444;" horiz-adv-x="1452" d="M57 508q0 125 26 229.5t76 179t125.5 116.5t176.5 42q43 0 75.5 -16.5t55.5 -34.5v449l268 40v-505q20 23 62.5 45t107.5 22q92 0 159.5 -41t114 -111.5t69 -168t22.5 -207.5q0 -125 -26 -230.5t-76 -181.5t-126.5 -118t-177.5 -42q-43 0 -74.5 15.5t-54.5 34.5v-494 h-268v512h-2q-20 -23 -62.5 -45.5t-105.5 -22.5q-92 0 -159.5 42t-114 114t-69 169t-22.5 208zM336 528q0 -166 37.5 -260t115.5 -94q41 0 63.5 9.5t39.5 25.5v659q-20 4 -46 6.5t-48 2.5q-88 0 -125 -89.5t-37 -259.5zM860 180q20 -4 43 -6t47 -2q90 0 127 91t37 263 q0 166 -36.5 257t-116.5 91q-41 0 -62.5 -9t-38.5 -25v-660z" />
<glyph unicode="&#x445;" horiz-adv-x="935" d="M10 0l299 545l-278 508h297q10 -20 29.5 -69.5t42 -105t43 -108.5t30.5 -84q2 0 12.5 26.5t25.5 66.5t33.5 86t34 87t25.5 70t12 31h289q-70 -129 -139.5 -258t-140.5 -258l299 -537h-295q-12 23 -35 72t-48.5 107.5t-49 114.5t-35.5 91q-12 -35 -35 -91t-47.5 -114.5 t-46 -107.5t-31.5 -72h-291z" />
<glyph unicode="&#x446;" horiz-adv-x="1081" d="M106 0v1053h275v-838h281v838h274v-838h111v-545h-238v330h-703z" />
<glyph unicode="&#x447;" horiz-adv-x="980" d="M68 666v387h276v-275q0 -63 3 -106t14.5 -70t33 -39t60.5 -12q14 0 35.5 3t43 9t39 13.5t27.5 15.5v461h274v-1053h-274v410q-12 -8 -34.5 -20.5t-55.5 -24t-77 -19.5t-97 -8q-137 0 -202.5 74.5t-65.5 253.5z" />
<glyph unicode="&#x448;" horiz-adv-x="1466" d="M106 0v1053h269v-838h227v838h262v-838h226v838h270v-1053h-1254z" />
<glyph unicode="&#x449;" horiz-adv-x="1507" d="M106 0v1053h269v-838h227v838h262v-838h226v838h270v-838h113v-545h-242v330h-1125z" />
<glyph unicode="&#x44a;" horiz-adv-x="1091" d="M14 836v217h502v-359q16 2 67.5 13.5t116.5 11.5q68 0 129.5 -17.5t107.5 -57.5t73.5 -107.5t27.5 -165.5q0 -102 -33.5 -175t-93 -120t-140.5 -68.5t-175 -21.5h-76q-90 0 -165.5 7t-112.5 7v836h-228zM516 178q23 -2 46.5 -3t45.5 -1q72 0 113 46t41 138 q0 94 -36.5 130t-102.5 36q-35 0 -69 -5t-38 -7v-334z" />
<glyph unicode="&#x44b;" horiz-adv-x="1380" d="M106 0v1053h275v-359q16 2 67.5 13.5t116.5 11.5q68 0 129.5 -17.5t107.5 -57.5t73.5 -107.5t27.5 -165.5q0 -102 -33.5 -175t-93 -120t-140.5 -68.5t-175 -21.5h-76q-90 0 -166 7t-113 7zM381 178q23 -2 46.5 -3t45.5 -1q72 0 113 46t41 138q0 94 -37 130t-103 36 q-35 0 -68.5 -5t-37.5 -7v-334zM997 0v1053h277v-1053h-277z" />
<glyph unicode="&#x44c;" horiz-adv-x="946" d="M106 0v1053h275v-359q16 2 67.5 13.5t116.5 11.5q68 0 129.5 -17.5t107.5 -57.5t73.5 -107.5t27.5 -165.5q0 -102 -33.5 -175t-93 -120t-140.5 -68.5t-175 -21.5h-76q-90 0 -166 7t-113 7zM381 178q23 -2 46.5 -3t45.5 -1q72 0 113 46t41 138q0 94 -37 130t-103 36 q-35 0 -68.5 -5t-37.5 -7v-334z" />
<glyph unicode="&#x44d;" horiz-adv-x="806" d="M16 68q14 43 29.5 85t30.5 85q23 -8 76 -31t127 -23q80 0 136 57.5t68 207.5h-309v174h311q-8 139 -58 193t-140 54q-57 0 -113.5 -13t-75.5 -21l-45 188q29 10 99.5 30.5t171.5 20.5q92 0 170.5 -30.5t136 -96t90.5 -166t33 -241.5q0 -154 -33 -261.5t-91.5 -175 t-137 -98.5t-170.5 -31q-68 0 -118 12.5t-87 28t-61.5 30.5t-39.5 22z" />
<glyph unicode="&#x44e;" horiz-adv-x="1470" d="M106 0v1053h275v-402l158 2q12 117 49 198t93 131t129 71.5t157 21.5q98 0 180 -28.5t142.5 -93t93 -169t32.5 -258.5t-32.5 -259t-93 -169.5t-142.5 -93.5t-180 -29q-86 0 -162 24t-132.5 78t-93 142t-44.5 217h-154v-436h-275zM805 526q0 -170 37 -261t125 -91 q90 0 126.5 91t36.5 261t-36.5 260.5t-126.5 90.5q-88 0 -125 -90.5t-37 -260.5z" />
<glyph unicode="&#x44f;" horiz-adv-x="942" d="M37 0l221 426q-82 29 -139.5 106.5t-57.5 200.5q0 182 113 257t320 75q111 0 199.5 -8t140.5 -8v-1049h-275v395q-16 -2 -33.5 -2h-33.5l-166 -393h-289zM332 721q0 -86 36.5 -124t110.5 -38h38t42 2v324q-16 0 -33.5 1t-33.5 1q-78 0 -119 -40t-41 -126z" />
<glyph unicode="&#x451;" horiz-adv-x="935" d="M57 498q0 147 34 255.5t91.5 180.5t134 106.5t164.5 34.5t161 -27.5t125 -88t82 -152.5t30 -221q0 -55 -5.5 -95t-7.5 -49h-534q2 -137 61.5 -197.5t147.5 -60.5q82 0 148.5 28t103.5 44l55 -180q-12 -8 -41 -24.5t-75 -34t-107.5 -30t-137.5 -12.5q-90 0 -167.5 30 t-136 93.5t-92.5 161.5t-34 238zM143 1376q0 70 40 113t100 43q59 0 97 -43t38 -113t-38 -112.5t-97 -42.5t-99.5 43t-40.5 112zM332 612l280 2q0 78 -10 129.5t-27.5 81t-42 42t-53.5 12.5q-27 0 -53.5 -13.5t-47 -45.5t-33.5 -83t-13 -125zM535 1376q0 70 38.5 113 t98.5 43q59 0 99 -43t40 -113t-40 -112.5t-99 -42.5t-98 43t-39 112z" />
<glyph unicode="&#x452;" horiz-adv-x="1048" d="M12 1155v193h94v165h269v-165h266v-193h-264v-299q10 12 33.5 34.5t60.5 45t85 40t110 17.5q90 0 144 -34.5t84 -103.5t40 -169t10 -229q0 -178 -7 -329t-19 -280q-16 -178 -90 -254.5t-230 -76.5q-29 0 -53.5 3t-48.5 7l8 205q35 2 61.5 10t45 26.5t28.5 51.5t16 82 q14 129 17.5 282.5t3.5 339.5q0 68 -7 111t-20.5 66.5t-35 32.5t-50.5 9q-33 0 -61.5 -12t-53 -29.5t-43 -35t-28.5 -27.5v-639h-271v1155h-94z" />
<glyph unicode="&#x453;" horiz-adv-x="677" d="M106 0v1053h562q-4 -55 -8.5 -109.5t-8.5 -107.5h-135t-135 2v-838h-275zM217 1284l285 342l155 -149q-80 -78 -160.5 -152t-160.5 -151z" />
<glyph unicode="&#x454;" horiz-adv-x="806" d="M57 504q0 147 33 255.5t91.5 178.5t139 103.5t177.5 33.5q98 0 161.5 -18.5t92.5 -28.5l-35 -194q-18 8 -73.5 22t-113.5 14q-96 0 -142 -57t-56 -192h299v-175h-301q10 -141 64.5 -201.5t137.5 -60.5q72 0 126 25t77 33q14 -47 28.5 -90t29.5 -91q-14 -6 -41 -20 t-66 -28.5t-89 -26t-112 -11.5q-94 0 -173 32t-135 97.5t-88 165t-32 234.5z" />
<glyph unicode="&#x455;" horiz-adv-x="770" d="M37 57l47 185q12 -4 36.5 -15.5t57.5 -22.5t69 -19.5t70 -8.5q59 0 92 18.5t33 77.5q0 43 -27.5 77t-70.5 65.5t-91 66.5t-91 77t-71 94.5t-28 123.5q0 141 92.5 220t262.5 79q104 0 171.5 -16.5t96.5 -26.5q-4 -51 -8 -101l-8 -100q-23 6 -84.5 22.5t-124.5 16.5 q-131 0 -131 -82q0 -39 29.5 -70.5t73.5 -62t95.5 -64.5t95.5 -76t73.5 -97.5t29.5 -128.5q0 -66 -20.5 -123t-64.5 -99t-112.5 -67t-164.5 -25q-66 0 -119 10.5t-94 24t-70 26.5t-45 21z" />
<glyph unicode="&#x456;" horiz-adv-x="489" d="M86 1374q0 74 45 121t111 47t110.5 -47t44.5 -121t-45 -120t-110 -46q-66 0 -111 46t-45 120zM106 0v1032l277 41v-1073h-277z" />
<glyph unicode="&#x457;" horiz-adv-x="489" d="M-88 1376q0 70 39 113t98 43t97 -43t38 -113t-37.5 -112.5t-97.5 -42.5q-59 0 -98 43t-39 112zM106 0v1032l277 41v-1073h-277zM301 1376q0 70 39 113t98 43t99.5 -43t40.5 -113t-40 -112.5t-100 -42.5q-59 0 -98 43t-39 112z" />
<glyph unicode="&#x458;" horiz-adv-x="499" d="M-45 -473l12 203q41 4 70 16t46 36.5t25.5 66.5t8.5 106v1077l274 41v-1145q0 -113 -21.5 -191.5t-62.5 -127.5t-103.5 -71.5t-144.5 -22.5q-29 0 -54 4zM96 1374q0 74 46 121t112 47q63 0 108.5 -47t45.5 -121t-45.5 -120t-108.5 -46q-66 0 -112 46t-46 120z" />
<glyph unicode="&#x459;" horiz-adv-x="1507" d="M27 -6l14 190q31 6 52.5 13.5t36.5 21.5t24.5 40t15.5 69q20 143 29.5 321t15.5 404h713v-359q16 2 67.5 13.5t116.5 11.5q68 0 129.5 -17.5t107.5 -57.5t73.5 -107.5t27.5 -165.5q0 -102 -34 -175t-93 -120t-140 -68.5t-175 -21.5h-76q-90 0 -166 7t-113 7v836h-194 q-4 -168 -14.5 -308.5t-26.5 -261.5q-10 -76 -30.5 -129t-56.5 -86t-90.5 -48t-129.5 -15q-47 0 -84 6zM928 178q23 -2 46 -3t46 -1q72 0 113 46t41 138q0 94 -37 130t-103 36q-35 0 -68.5 -5t-37.5 -7v-334z" />
<glyph unicode="&#x45a;" horiz-adv-x="1517" d="M106 0v1053h275v-398h283v398h274v-359q16 2 67.5 13.5t116.5 11.5q68 0 129.5 -17.5t107.5 -57.5t73.5 -107.5t27.5 -165.5q0 -102 -33.5 -175t-93 -120t-140.5 -68.5t-175 -21.5h-76q-90 0 -166 7t-112 7v449h-283v-449h-275zM938 178q23 -2 46.5 -3t45.5 -1 q72 0 113 46t41 138q0 94 -37 130t-103 36q-35 0 -68.5 -5t-37.5 -7v-334z" />
<glyph unicode="&#x45b;" horiz-adv-x="1042" d="M12 1339h99v81t2 81l262 12v-174h266l-12 -192h-252v-291q10 12 33.5 34.5t60.5 45t86 40t111 17.5q88 0 142 -35.5t84 -101t40 -160t10 -211.5v-485h-268v539q0 119 -26.5 161.5t-86.5 42.5q-33 0 -62.5 -13t-54 -30.5t-43 -35t-26.5 -25.5v-639h-271v1147h-86z" />
<glyph unicode="&#x45c;" horiz-adv-x="980" d="M109 0v1053h274v-414l59 66l207 348h312q-86 -117 -170 -234t-170 -233l374 -586h-329l-263 461l-20 -78v-383h-274zM369 1284l284 342l154 -149l-320 -303z" />
<glyph unicode="&#x45e;" horiz-adv-x="940" d="M14 1053h289q8 -31 21.5 -87.5t30 -126t35 -147.5t34.5 -151.5t29.5 -138t21.5 -107.5q12 66 37 175.5t50.5 223t50 213t36.5 146.5h279l-346 -1112q-33 -104 -77 -173t-90 -114t-90 -70.5t-77 -44.5q-10 14 -27.5 37t-35 47.5t-34 47t-26.5 36.5q12 10 42 29.5 t64.5 52.5t66.5 79t48 109zM160 1438q35 12 68.5 25.5t68.5 25.5q0 -16 10 -35.5t31.5 -38t54.5 -31t76 -12.5t75.5 13.5t54 32t32 38t10.5 33.5l137 -47q0 -43 -18.5 -86t-57.5 -79t-96 -58.5t-137 -22.5q-78 0 -136.5 21.5t-97 56.5t-57 78t-18.5 86z" />
<glyph unicode="&#x45f;" horiz-adv-x="1062" d="M106 0v1053h275v-828h301v828h274v-1053h-305v-313h-237v313h-308z" />
<glyph unicode="&#x490;" horiz-adv-x="811" d="M127 0v1348h426v221l242 41v-496h-383v-1114h-285z" />
<glyph unicode="&#x491;" horiz-adv-x="671" d="M106 0v1053h318v231l233 41v-489h-276v-836h-275z" />
<glyph unicode="&#x2000;" horiz-adv-x="953" />
<glyph unicode="&#x2001;" horiz-adv-x="1907" />
<glyph unicode="&#x2002;" horiz-adv-x="953" />
<glyph unicode="&#x2003;" horiz-adv-x="1907" />
<glyph unicode="&#x2004;" horiz-adv-x="635" />
<glyph unicode="&#x2005;" horiz-adv-x="476" />
<glyph unicode="&#x2006;" horiz-adv-x="317" />
<glyph unicode="&#x2007;" horiz-adv-x="317" />
<glyph unicode="&#x2008;" horiz-adv-x="238" />
<glyph unicode="&#x2009;" horiz-adv-x="381" />
<glyph unicode="&#x200a;" horiz-adv-x="105" />
<glyph unicode="&#x2010;" horiz-adv-x="653" d="M74 463v221h506v-221h-506z" />
<glyph unicode="&#x2011;" horiz-adv-x="653" d="M74 463v221h506v-221h-506z" />
<glyph unicode="&#x2012;" horiz-adv-x="653" d="M74 463v221h506v-221h-506z" />
<glyph unicode="&#x2013;" horiz-adv-x="925" d="M49 494v229h825v-229h-825z" />
<glyph unicode="&#x2014;" horiz-adv-x="1558" d="M84 496v225h1389v-225h-1389z" />
<glyph unicode="&#x2018;" horiz-adv-x="421" d="M82 1118q0 49 15.5 103.5t41 109.5t59 109.5t68.5 105.5q29 -14 56.5 -28.5t56.5 -28.5q-35 -66 -62.5 -140.5t-27.5 -131.5q4 -33 22.5 -66t22.5 -78q0 -33 -36 -61.5t-85 -28.5q-55 0 -93 35t-38 100z" />
<glyph unicode="&#x2019;" horiz-adv-x="421" d="M41 1038q35 66 62.5 142t27.5 131q-2 33 -22.5 65.5t-20.5 77.5q0 33 36 61.5t85 28.5q129 0 129 -164q-4 -47 -20.5 -99t-43 -103.5t-57.5 -101.5t-61 -95z" />
<glyph unicode="&#x201a;" horiz-adv-x="421" d="M41 -248q35 66 62.5 142t27.5 131q-2 33 -22.5 65.5t-20.5 77.5q0 33 36 61.5t85 28.5q129 0 129 -164q-4 -47 -21.5 -99t-43 -103.5t-56.5 -101.5t-61 -93z" />
<glyph unicode="&#x201c;" horiz-adv-x="774" d="M82 1118q0 49 15.5 103.5t41 109.5t59 109.5t68.5 105.5l113 -57q-35 -66 -61.5 -140.5t-26.5 -131.5q4 -33 21.5 -65t21.5 -79q0 -33 -36 -61.5t-85 -28.5q-55 0 -93 35t-38 100zM430 1118q0 49 15.5 103.5t42 109.5t59.5 110.5t67 104.5q29 -14 56.5 -28.5t56.5 -28.5 q-35 -66 -61.5 -140.5t-26.5 -131.5q4 -33 22.5 -66t22.5 -78q0 -33 -37 -61.5t-86 -28.5q-55 0 -93 35t-38 100z" />
<glyph unicode="&#x201d;" horiz-adv-x="774" d="M41 1038q35 66 62.5 142t27.5 131q-2 33 -22.5 65.5t-20.5 77.5q0 33 36 61.5t85 28.5q129 0 129 -164q-4 -47 -20.5 -99t-43 -103.5t-57.5 -101.5t-61 -95zM391 1038q27 47 52.5 106.5t25.5 104.5q0 35 -9 71t-9 79v10q0 59 32.5 97t73.5 38q131 0 131 -164 q-4 -47 -20.5 -99t-43 -104.5t-58 -102.5t-62.5 -93q-29 16 -56.5 28.5t-56.5 28.5z" />
<glyph unicode="&#x201e;" horiz-adv-x="774" d="M41 -248q35 66 62.5 142t27.5 131q-2 33 -22.5 65.5t-20.5 77.5q0 33 36 61.5t85 28.5q129 0 129 -164q-4 -47 -21.5 -99t-43 -103.5t-56.5 -101.5t-61 -93zM391 -248q27 49 52.5 107.5t25.5 105.5q0 35 -9 70t-9 78v10q0 59 32.5 97t73.5 38q131 0 131 -164 q-4 -47 -21.5 -98t-43 -103.5t-57 -102.5t-62.5 -93z" />
<glyph unicode="&#x2026;" horiz-adv-x="1499" d="M102 152q0 78 44 125t110 47t109 -47t43 -125t-43 -125t-109 -47t-110 47t-44 125zM596 152q0 78 44 125t110 47t108.5 -47t42.5 -125t-43 -125t-108 -47q-66 0 -110 47t-44 125zM1090 152q0 78 44 125t109 47q66 0 110 -47t44 -125t-44 -125t-110 -47t-109.5 47 t-43.5 125z" />
<glyph unicode="&#x202f;" horiz-adv-x="381" />
<glyph unicode="&#x2039;" horiz-adv-x="604" d="M86 549q78 98 155.5 195.5t155.5 195.5l127 -111l-205 -278q51 -72 102.5 -140.5t102.5 -138.5q-33 -31 -63.5 -61.5t-63.5 -58.5q-78 98 -155.5 198.5t-155.5 198.5z" />
<glyph unicode="&#x203a;" horiz-adv-x="604" d="M76 821l129 119l311 -395l-311 -393l-127 110l203 281z" />
<glyph unicode="&#x205f;" horiz-adv-x="476" />
<glyph unicode="&#x20ac;" horiz-adv-x="1110" d="M57 461q4 35 8.5 71.5t8.5 71.5h90v141h-107l17 144h104q76 485 535 485q63 0 121.5 -8t104.5 -19.5t79 -21.5t45 -14q-10 -53 -19.5 -107.5t-19.5 -107.5q-14 6 -43 15t-65.5 16.5t-76.5 13.5t-77 6q-129 0 -196.5 -64.5t-90.5 -193.5h356l-14 -144h-356v-141h346 l-14 -143h-318q23 -135 89.5 -199.5t197.5 -64.5q37 0 77 6t76.5 13t65.5 16.5t43 15.5q10 -53 19.5 -107.5t19.5 -107.5q-12 -4 -45 -14.5t-79 -21.5t-104.5 -19.5t-121.5 -8.5q-229 0 -363.5 121t-171.5 371h-121z" />
<glyph unicode="&#x2122;" horiz-adv-x="1538" d="M80 1348v165h569v-165h-194v-664h-189v664h-186zM662 684q6 59 18 154.5t25.5 209t28 234.5t26.5 231h188q31 -121 61.5 -240.5t63.5 -240.5q35 123 70 242t69 239h185q23 -209 43 -414.5t41 -414.5h-187l-43 498v-2l-121 -418h-126q-29 111 -57.5 221.5t-57.5 220.5 q-10 -160 -23.5 -295t-21.5 -225h-182z" />
<glyph unicode="&#x25fc;" horiz-adv-x="1054" d="M0 0v1055h1055v-1055h-1055z" />
</font>
</defs>
</svg>
